<svg version="1.1" id="Layer_1" xmlns="http://www.w3.org/2000/svg" xmlns:xlink="http://www.w3.org/1999/xlink" x="0px" y="0px"
	 width="100%" viewBox="0 0 288 288" enable-background="new 0 0 288 288" xml:space="preserve">
<path fill="#000000" opacity="1.000000" stroke="none" 
	d="
M222.338867,172.944305 
	C220.171707,193.405289 215.443878,212.628616 204.575211,229.861465 
	C199.686920,237.612091 193.495590,244.262360 185.837631,249.511551 
	C186.744080,253.057449 189.481659,255.235764 191.058411,258.105225 
	C193.056030,261.740601 191.566895,265.298706 187.580338,265.214691 
	C173.663818,264.921356 159.615845,266.987762 145.863937,263.373383 
	C130.940002,259.450958 118.997513,251.096603 108.996933,239.357452 
	C88.703209,215.535736 78.713783,187.138123 71.674660,157.364502 
	C71.041695,154.687225 69.210159,154.167709 67.222717,153.320541 
	C56.474091,148.738831 46.171192,143.429550 37.744251,135.077850 
	C30.061995,127.464180 30.929527,118.259232 40.113834,112.583649 
	C48.054825,107.676376 57.110775,105.977730 66.152405,104.851723 
	C70.134377,104.355827 71.230049,102.461731 71.604523,99.205048 
	C74.190002,76.719849 80.609192,55.554531 94.755905,37.539776 
	C106.800255,22.202217 122.397522,12.713528 142.527756,12.711377 
	C154.423767,12.710106 166.395950,11.503470 178.019073,15.934322 
	C194.942108,22.385561 206.135361,34.526100 213.154678,50.654697 
	C219.690521,65.672432 223.058960,81.542564 223.306824,97.971115 
	C223.369705,102.139236 226.312485,102.105797 229.040176,102.631371 
	C238.497635,104.453659 247.671295,106.825027 256.198364,111.738632 
	C263.858551,116.152710 263.954834,127.476517 258.452759,132.860611 
	C250.049072,141.084122 239.502441,145.710693 228.973984,150.189072 
	C224.754425,151.983871 222.689529,154.055420 223.335220,158.611526 
	C223.999130,163.296432 222.301651,167.832550 222.338867,172.944305 
M189.606827,32.871758 
	C184.007645,28.658817 178.192795,24.940207 171.272568,23.113520 
	C160.874771,20.368883 150.496689,19.725449 139.781036,21.240713 
	C122.772934,23.645775 109.781586,32.050983 100.059753,45.939835 
	C87.333855,64.120354 81.552284,84.684181 79.335434,106.460602 
	C78.973106,110.019714 77.687996,112.079247 73.573647,112.480980 
	C65.496468,113.269676 57.459198,114.727356 49.870148,117.727455 
	C46.719997,118.972778 42.644650,120.229111 42.086201,124.045280 
	C41.483379,128.164688 45.235218,130.402023 48.165737,132.499756 
	C56.431732,138.416763 65.350731,143.179901 74.805054,146.937668 
	C77.209122,147.893188 78.828804,149.278290 79.425278,152.209412 
	C84.264145,175.987793 92.464943,198.578354 105.269592,219.221481 
	C114.306900,233.791046 125.741875,246.092972 142.097534,252.988831 
	C153.712540,257.885925 165.629105,256.648987 178.459396,256.343964 
	C177.099731,254.623672 176.374268,253.750290 175.696899,252.841064 
	C172.720795,248.846161 173.026794,246.319809 177.399124,243.866257 
	C189.569595,237.036850 197.244553,226.282455 202.728195,214.024078 
	C210.885071,195.789841 214.716949,176.496872 214.668564,156.474304 
	C214.644135,146.368484 214.825439,146.711395 223.830994,142.618011 
	C233.159988,138.377579 243.062927,134.965698 250.463425,127.303772 
	C254.791229,122.823090 254.529343,121.077309 248.868210,118.022316 
	C240.407990,113.456818 231.119873,111.710739 221.751099,110.378250 
	C216.613586,109.647575 214.542328,107.829758 214.713654,102.701607 
	C214.981445,94.686539 214.167831,86.778320 212.592331,78.975540 
	C209.129150,61.823952 203.558624,45.640965 189.606827,32.871758 
z"/>
<path fill="#000000" opacity="1.000000" stroke="none" 
	d="
M116.712524,281.389771 
	C105.386734,281.403748 94.553810,281.270721 83.586205,278.057190 
	C85.774796,273.711609 89.472748,274.365723 92.225929,273.901459 
	C95.942184,273.274780 99.797104,273.009918 103.585327,272.764069 
	C126.175827,271.298004 148.826797,271.075012 171.418350,271.896301 
	C183.105530,272.321136 194.958313,272.129211 206.549423,274.590881 
	C208.225418,274.946808 209.747116,275.265991 210.904160,276.632782 
	C210.472183,278.770874 208.779968,279.069824 207.167648,279.319061 
	C200.948059,280.280487 194.720444,281.051147 188.417053,281.427338 
	C168.473404,282.617432 148.515915,282.304016 128.560135,282.394287 
	C124.727776,282.411621 120.923927,282.342255 116.712524,281.389771 
z"/>
<path fill="#000000" opacity="1.000000" stroke="none" 
	d="
M168.796509,93.777901 
	C166.595657,89.156586 167.486832,85.061447 170.323380,81.783539 
	C173.270721,78.377579 177.407333,77.848198 181.601028,79.224846 
	C183.058945,81.310043 180.705963,83.164398 181.579773,85.122055 
	C181.816086,85.255722 182.151657,85.598877 182.343353,85.531662 
	C187.890533,83.586739 188.474747,84.049416 188.345566,89.896164 
	C188.244995,94.448883 185.994507,97.493233 181.870346,98.973320 
	C177.084732,100.690773 172.024429,98.649818 168.796509,93.777901 
z"/>
<path fill="#000000" opacity="1.000000" stroke="none" 
	d="
M130.450775,84.669487 
	C133.752747,83.072708 135.042099,84.180878 135.339233,87.306885 
	C135.850769,92.688881 133.312485,97.434448 128.920502,98.974792 
	C124.937302,100.371765 118.557388,98.362961 116.479759,95.057671 
	C113.731560,90.685577 114.156944,84.844894 117.604454,81.217110 
	C119.994057,78.702553 123.094452,78.317764 126.329094,78.817230 
	C128.741608,79.189751 128.415710,81.104050 128.062500,82.693390 
	C127.623207,84.670097 127.735687,85.746483 130.450775,84.669487 
z"/>
</svg>